<svg width="175" height="175" viewBox="0 0 175 175" fill="none" xmlns="http://www.w3.org/2000/svg">
<g clip-path="url(#clip0_5_3)">
<g filter="url(#filter0_d_5_3)">
<path d="M100.936 47.44C100.509 47.44 100.125 47.2267 99.784 46.8C99.528 46.3733 99.5707 45.904 99.912 45.392C100.68 44.368 101.789 42.9173 103.24 41.04C104.776 39.0773 106.397 36.944 108.104 34.64C109.896 32.336 111.603 30.16 113.224 28.112C114.845 25.9787 116.168 24.272 117.192 22.992C118.301 21.6267 118.856 20.944 118.856 20.944C119.283 20.3467 119.837 20.2613 120.52 20.688C121.288 21.0293 122.141 21.5413 123.08 22.224C124.104 22.8213 125.128 23.2053 126.152 23.376C126.323 23.376 126.451 23.4187 126.536 23.504C126.707 23.504 126.835 23.504 126.92 23.504C128.456 23.504 129.437 22.6507 129.864 20.944C130.291 19.4933 129.821 18.128 128.456 16.848C127.091 15.4827 125.341 14.288 123.208 13.264C121.16 12.24 119.155 11.3867 117.192 10.704C115.229 10.0213 113.821 9.55199 112.968 9.296C107.507 7.58933 101.405 6.26666 94.664 5.328C87.9227 4.38933 81.608 3.92 75.72 3.92C72.9893 3.92 69.6613 4.00533 65.736 4.17599C61.896 4.34666 57.8 4.73066 53.448 5.328C49.1813 5.83999 44.9573 6.69333 40.776 7.88799C36.5947 8.99733 32.8827 10.4907 29.64 12.368C26.3973 14.2453 23.5387 16.6347 21.064 19.536C18.5893 22.352 17.352 25.4667 17.352 28.88C17.352 30.672 17.5653 31.9947 17.992 32.848C18.4187 33.616 18.8453 34 19.272 34C20.2107 34 20.68 33.1467 20.68 31.44C20.68 28.1973 21.7467 25.2107 23.88 22.48C26.0987 19.7493 28.3173 17.6587 30.536 16.208C34.888 13.3067 40.648 11.1733 47.816 9.808C55.0693 8.44266 62.5787 7.75999 70.344 7.75999C75.8053 7.75999 81.1813 8.10133 86.472 8.784C91.7627 9.38133 96.6267 10.32 101.064 11.6C105.587 12.88 109.299 14.5013 112.2 16.464C112.627 16.6347 112.84 16.976 112.84 17.488C112.84 17.9147 112.627 18.2987 112.2 18.64C111.859 18.896 111.432 18.8533 110.92 18.512C108.104 16.72 104.52 15.2267 100.168 14.032C95.9013 12.752 91.208 11.8133 86.088 11.216C80.968 10.5333 75.7627 10.192 70.472 10.192C62.8773 10.192 55.5813 10.8747 48.584 12.24C41.672 13.52 36.168 15.5253 32.072 18.256C29.9387 19.7067 27.9333 21.6693 26.056 24.144C24.1787 26.5333 23.24 28.9653 23.24 31.44C23.24 33.0613 22.8133 34.3413 21.96 35.28C21.192 36.1333 20.296 36.56 19.272 36.56C18.1627 36.56 17.1387 35.9627 16.2 34.768C15.2613 33.488 14.792 31.5253 14.792 28.88C14.792 26.1493 15.432 23.5893 16.712 21.2C18.0773 18.8107 19.784 16.6773 21.832 14.8C23.9653 12.9227 26.1413 11.344 28.36 10.064C31.7733 8.10133 35.6133 6.56533 39.88 5.45599C44.232 4.26133 48.6267 3.36533 53.064 2.768C57.5867 2.17066 61.8107 1.78666 65.736 1.616C69.7467 1.44533 73.0747 1.35999 75.72 1.35999C79.048 1.35999 83.0587 1.57333 87.752 1.99999C92.4453 2.42666 97.2667 3.10933 102.216 4.048C107.251 4.98666 112.029 6.18133 116.552 7.632C121.075 9.08266 124.787 10.832 127.688 12.88C129.053 13.8187 130.205 14.8853 131.144 16.08C132.083 17.2747 132.552 18.5973 132.552 20.048C132.552 20.304 132.509 20.56 132.424 20.816C132.424 21.072 132.381 21.328 132.296 21.584C131.869 23.2053 131.187 24.3573 130.248 25.04C129.309 25.7227 128.243 26.064 127.048 26.064C125.939 26.064 124.744 25.808 123.464 25.296C122.184 24.6987 121.032 24.1013 120.008 23.504C119.24 24.528 118.003 26.1067 116.296 28.24C114.675 30.288 112.883 32.5493 110.92 35.024C109.043 37.4987 107.251 39.8453 105.544 42.064C103.923 44.1973 102.728 45.8187 101.96 46.928C101.704 47.2693 101.363 47.44 100.936 47.44ZM79.816 60.368C78.536 60.2827 76.872 60.1973 74.824 60.112C72.776 59.9413 70.6 59.7707 68.296 59.6C66.0773 59.344 63.9867 59.0027 62.024 58.576C60.1467 58.1493 58.696 57.552 57.672 56.784C56.3067 55.76 55.624 54.0107 55.624 51.536C55.624 50.256 55.9227 49.104 56.52 48.08C57.2027 46.9707 58.312 46.3733 59.848 46.288C60.36 46.2027 60.872 46.16 61.384 46.16C61.896 46.16 62.3653 46.16 62.792 46.16C66.7173 46.16 70.5573 46.672 74.312 47.696C78.0667 48.72 81.864 49.4453 85.704 49.872C88.4347 46.4587 91.2507 42.9173 94.152 39.248C97.1387 35.4933 99.8693 32.08 102.344 29.008C104.819 25.8507 106.653 23.504 107.848 21.968C108.104 21.6267 108.445 21.456 108.872 21.456C109.299 21.456 109.683 21.712 110.024 22.224C110.365 22.6507 110.323 23.0773 109.896 23.504C108.616 25.1253 106.696 27.5573 104.136 30.8C101.576 33.9573 98.8027 37.4133 95.816 41.168C92.8293 44.9227 90.0133 48.5067 87.368 51.92C87.112 52.176 86.5573 52.304 85.704 52.304C84.5947 52.304 83.1867 52.1333 81.48 51.792C79.7733 51.4507 78.1947 51.1093 76.744 50.768C75.2933 50.4267 74.44 50.2133 74.184 50.128C71.7947 49.7013 69.4053 49.36 67.016 49.104C64.6267 48.7627 62.3227 48.6773 60.104 48.848C59.5067 48.9333 59.0373 49.3173 58.696 50C58.3547 50.6827 58.184 51.408 58.184 52.176C58.184 53.456 58.5253 54.3093 59.208 54.736C59.976 55.3333 61.2987 55.8027 63.176 56.144C65.0533 56.4853 67.0587 56.784 69.192 57.04C71.4107 57.2107 73.5013 57.3813 75.464 57.552C77.512 57.6373 79.048 57.7227 80.072 57.808C80.84 57.808 81.224 58.2347 81.224 59.088C81.224 59.4293 81.096 59.7707 80.84 60.112C80.584 60.368 80.2427 60.4533 79.816 60.368ZM23.24 100.816C21.0213 100.816 18.632 100.56 16.072 100.048C13.5973 99.536 11.208 98.7253 8.904 97.616C6.68533 96.5067 4.85067 95.0133 3.4 93.136C2.03467 91.2587 1.352 88.9547 1.352 86.224C1.352 82.2133 2.504 78.544 4.808 75.216C7.19733 71.888 10.2693 69.0293 14.024 66.64C17.864 64.2507 22.0453 62.416 26.568 61.136C31.176 59.856 35.6987 59.216 40.136 59.216C41.5867 59.216 43.6773 59.3867 46.408 59.728C49.1387 60.0693 51.8693 60.6667 54.6 61.52C57.416 62.3733 59.6773 63.6107 61.384 65.232C62.3227 66.0853 62.9627 66.9387 63.304 67.792C63.6453 68.6453 63.816 69.4987 63.816 70.352C63.816 71.8027 63.304 73.0827 62.28 74.192C61.3413 75.216 60.1467 75.728 58.696 75.728C57.0747 75.728 55.496 75.0027 53.96 73.552C52.8507 72.528 51.1013 71.376 48.712 70.096C46.408 68.816 43.4213 68.176 39.752 68.176C34.632 68.176 30.1093 69.0293 26.184 70.736C22.2587 72.3573 19.1867 74.4053 16.968 76.88C14.7493 79.2693 13.64 81.5733 13.64 83.792C13.64 85.7547 14.664 87.4613 16.712 88.912C18.76 90.2773 22.0453 90.96 26.568 90.96C30.5787 90.96 35.4 89.8507 41.032 87.632C46.664 85.4133 52.424 82.1707 58.312 77.904C64.2853 73.6373 69.7893 68.4747 74.824 62.416C75.08 62.0747 75.4213 61.904 75.848 61.904C76.2747 61.904 76.6587 62.16 77 62.672C77.3413 63.0987 77.2987 63.5253 76.872 63.952C71.752 70.1813 66.12 75.5147 59.976 79.952C53.832 84.304 47.816 87.6747 41.928 90.064C36.04 92.368 30.92 93.52 26.568 93.52C21.192 93.52 17.2667 92.5813 14.792 90.704C12.3173 88.8267 11.08 86.5653 11.08 83.92C11.08 81.1893 12.232 78.416 14.536 75.6C16.9253 72.784 20.2533 70.4373 24.52 68.56C28.872 66.5973 33.9493 65.616 39.752 65.616C43.848 65.616 47.2187 66.3413 49.864 67.792C52.5093 69.2427 54.472 70.5653 55.752 71.76C56.9467 72.784 57.9707 73.296 58.824 73.296C59.5067 73.296 60.0613 73.04 60.488 72.528C60.9147 71.9307 61.128 71.2907 61.128 70.608C61.128 68.9013 60.3173 67.4933 58.696 66.384C57.0747 65.2747 55.0693 64.3787 52.68 63.696C50.2907 63.0133 47.944 62.544 45.64 62.288C43.336 61.9467 41.5013 61.776 40.136 61.776C35.9547 61.776 31.7307 62.3733 27.464 63.568C23.2827 64.7627 19.4 66.4693 15.816 68.688C12.3173 70.8213 9.45867 73.3813 7.24 76.368C5.10667 79.2693 4.04 82.4693 4.04 85.968C4.04 88.8693 4.97867 91.216 6.856 93.008C8.81867 94.8 11.2507 96.1227 14.152 96.976C17.1387 97.8293 20.168 98.256 23.24 98.256C29.896 98.256 36.168 97.2747 42.056 95.312C47.944 93.3493 53.3627 90.832 58.312 87.76C63.3467 84.6027 67.8267 81.3173 71.752 77.904C75.7627 74.4053 79.176 71.2053 81.992 68.304C84.7227 65.3173 86.728 62.8853 88.008 61.008C89.288 59.1307 90.2267 58.192 90.824 58.192C92.104 58.192 94.1947 58.192 97.096 58.192C100.083 58.192 103.368 58.1067 106.952 57.936C110.536 57.68 114.035 57.296 117.448 56.784C120.861 56.1867 123.635 55.4187 125.768 54.48C126.28 54.224 126.963 53.7973 127.816 53.2C128.669 52.5173 129.395 51.7493 129.992 50.896C130.675 50.0427 130.888 49.232 130.632 48.464H130.376C130.291 48.464 130.12 48.5067 129.864 48.592C129.608 48.592 129.267 48.6773 128.84 48.848C125.512 50.4693 122.013 51.536 118.344 52.048C114.76 52.4747 111.133 52.688 107.464 52.688C105.843 52.688 104.221 52.688 102.6 52.688C101.064 52.6027 99.528 52.56 97.992 52.56C97.1387 52.56 96.712 52.1333 96.712 51.28C96.712 50.4267 97.1387 50 97.992 50C99.528 50 101.064 50.0427 102.6 50.128C104.221 50.128 105.843 50.128 107.464 50.128C110.963 50.128 114.419 49.9147 117.832 49.488C121.245 49.0613 124.531 48.08 127.688 46.544C128.712 46.032 129.608 45.776 130.376 45.776C132.253 45.776 133.192 46.8 133.192 48.848C133.192 50.0427 132.68 51.4507 131.656 53.072C130.632 54.608 129.011 55.8453 126.792 56.784C124.573 57.808 121.757 58.6187 118.344 59.216C115.016 59.728 111.56 60.112 107.976 60.368C104.392 60.5387 101.107 60.6667 98.12 60.752C95.1333 60.752 92.9147 60.752 91.464 60.752C85.064 68.944 78.664 75.6427 72.264 80.848C65.864 86.0533 59.6773 90.1067 53.704 93.008C47.7307 95.9093 42.1413 97.9147 36.936 99.024C31.816 100.219 27.2507 100.816 23.24 100.816Z" fill="#4788C7"/>
</g>
<g filter="url(#filter1_d_5_3)">
<path d="M135.376 122.64C134.437 122.64 133.968 122.213 133.968 121.36C133.968 120.507 134.395 120.08 135.248 120.08C139.6 119.909 143.611 118.885 147.28 117.008C151.035 115.045 154.021 112.613 156.24 109.712C158.544 106.811 159.696 103.909 159.696 101.008C159.696 98.5333 158.757 96.272 156.88 94.224C155.003 92.0907 151.973 90.384 147.792 89.104C143.611 87.824 138.021 87.184 131.024 87.184C127.611 87.184 123.685 87.44 119.248 87.952C114.896 88.3787 110.459 89.1467 105.936 90.256C101.413 91.3653 97.1467 92.8587 93.136 94.736C89.1253 96.6133 85.712 98.96 82.896 101.776C82.2987 102.373 81.616 102.928 80.848 103.44C80.1653 103.952 79.3547 104.208 78.416 104.208C77.392 104.208 76.624 103.867 76.112 103.184C75.6 102.501 75.344 101.605 75.344 100.496C75.344 98.3627 75.984 96.3147 77.264 94.352C78.6293 92.304 80.3787 90.4693 82.512 88.848C84.6453 87.1413 86.864 85.7333 89.168 84.624C94.6293 81.9787 100.987 80.1013 108.24 78.992C115.579 77.7973 122.832 77.2 130 77.2C136.144 77.2 141.861 77.584 147.152 78.352C152.528 79.0347 156.923 80.0587 160.336 81.424C164.091 82.96 167.248 85.136 169.808 87.952C172.368 90.6827 173.648 94.3093 173.648 98.832C173.648 102.16 172.965 105.36 171.6 108.432C170.32 111.419 168.571 114.021 166.352 116.24C164.133 118.459 161.659 120.08 158.928 121.104C158.843 121.189 158.672 121.232 158.416 121.232C157.648 121.232 157.264 120.805 157.264 119.952C157.264 119.44 157.52 119.056 158.032 118.8C161.872 117.349 165.029 114.747 167.504 110.992C169.979 107.152 171.216 103.141 171.216 98.96C171.216 95.2053 170.192 92.1333 168.144 89.744C166.096 87.3547 163.408 85.4773 160.08 84.112C156.837 82.7467 153.339 81.7653 149.584 81.168C145.829 80.4853 142.203 80.1013 138.704 80.016C135.205 79.8453 132.219 79.76 129.744 79.76C122.491 79.76 115.365 80.3573 108.368 81.552C101.371 82.6613 95.3547 84.4107 90.32 86.8C86.992 88.4213 84.0907 90.512 81.616 93.072C79.1413 95.632 77.904 98.064 77.904 100.368C77.904 101.221 78.2027 101.648 78.8 101.648C79.2267 101.648 79.7813 101.307 80.464 100.624C81.1467 99.9413 81.6587 99.3867 82 98.96C84.9867 95.888 89.168 93.2853 94.544 91.152C99.92 89.0187 105.808 87.3973 112.208 86.288C118.608 85.1787 124.837 84.624 130.896 84.624C138.491 84.624 144.592 85.392 149.2 86.928C153.808 88.464 157.136 90.4693 159.184 92.944C161.232 95.3333 162.256 97.9787 162.256 100.88C162.256 104.293 161.019 107.621 158.544 110.864C156.155 114.107 152.912 116.837 148.816 119.056C144.805 121.275 140.325 122.469 135.376 122.64ZM51.28 174.352C48.1227 174.352 44.752 173.968 41.168 173.2C37.584 172.517 34.256 171.408 31.184 169.872C28.112 168.251 25.5947 166.16 23.632 163.6C21.6693 160.955 20.688 157.712 20.688 153.872C20.688 148.837 22.0107 144.059 24.656 139.536C27.3867 135.013 30.928 131.045 35.28 127.632C39.7173 124.133 44.5813 121.403 49.872 119.44C55.248 117.392 60.5813 116.368 65.872 116.368C67.92 116.368 70.5227 116.624 73.68 117.136C76.9227 117.648 80.1653 118.501 83.408 119.696C86.6507 120.805 89.3813 122.299 91.6 124.176C93.904 126.053 95.1413 128.357 95.312 131.088C95.3973 131.941 94.8 132.923 93.52 134.032C92.3253 135.141 91.216 135.696 90.192 135.696C89.424 135.696 88.912 135.269 88.656 134.416C88.4 133.307 87.0347 132.027 84.56 130.576C82.1707 129.04 79.1413 127.717 75.472 126.608C71.888 125.413 68.176 124.816 64.336 124.816C60.1547 124.816 56.144 125.669 52.304 127.376C48.464 129.083 45.008 131.301 41.936 134.032C38.864 136.677 36.432 139.579 34.64 142.736C32.848 145.893 31.952 148.965 31.952 151.952C31.952 155.621 33.5733 158.736 36.816 161.296C40.0587 163.771 45.52 165.008 53.2 165.008C57.2107 165.008 61.392 164.155 65.744 162.448C70.096 160.656 74.448 158.309 78.8 155.408C83.152 152.507 87.376 149.264 91.472 145.68C95.568 142.011 99.3653 138.256 102.864 134.416C106.363 130.576 109.435 126.949 112.08 123.536C113.616 121.573 115.408 119.227 117.456 116.496C119.589 113.765 121.765 110.907 123.984 107.92C126.288 104.933 128.421 102.117 130.384 99.472C132.432 96.8267 134.053 94.5653 135.248 92.688C135.504 92.2613 135.888 92.048 136.4 92.048C136.827 92.048 137.168 92.2613 137.424 92.688C137.68 93.0293 137.637 93.456 137.296 93.968C136.016 95.8453 134.395 98.1493 132.432 100.88C130.469 103.611 128.336 106.469 126.032 109.456C123.813 112.357 121.637 115.216 119.504 118.032C117.456 120.763 115.664 123.109 114.128 125.072C111.483 128.485 108.368 132.155 104.784 136.08C101.2 139.92 97.3173 143.717 93.136 147.472C88.9547 151.141 84.6027 154.512 80.08 157.584C75.5573 160.571 70.992 163.003 66.384 164.88C61.8613 166.672 57.4667 167.568 53.2 167.568C49.616 167.568 45.9893 167.141 42.32 166.288C38.736 165.349 35.7067 163.771 33.232 161.552C30.7573 159.248 29.52 156.048 29.52 151.952C29.52 147.856 30.5867 144.016 32.72 140.432C34.9387 136.848 37.7973 133.691 41.296 130.96C44.7947 128.229 48.5493 126.096 52.56 124.56C56.656 123.024 60.5813 122.256 64.336 122.256C67.92 122.256 71.5893 122.811 75.344 123.92C79.0987 124.944 82.384 126.309 85.2 128.016C88.016 129.637 89.8507 131.301 90.704 133.008C91.6427 132.496 92.3253 131.856 92.752 131.088C92.5813 128.869 91.3867 126.992 89.168 125.456C87.0347 123.835 84.4747 122.555 81.488 121.616C78.5013 120.677 75.5573 119.995 72.656 119.568C69.84 119.141 67.5787 118.928 65.872 118.928C60.9227 118.928 55.9307 119.867 50.896 121.744C45.8613 123.621 41.2533 126.224 37.072 129.552C32.976 132.795 29.648 136.507 27.088 140.688C24.6133 144.784 23.376 149.136 23.376 153.744C23.376 156.901 24.1867 159.632 25.808 161.936C27.5147 164.24 29.7333 166.117 32.464 167.568C35.1947 169.019 38.1813 170.085 41.424 170.768C44.752 171.451 48.0373 171.792 51.28 171.792C58.2773 171.792 65.0613 170.512 71.632 167.952C78.288 165.392 84.56 162.064 90.448 157.968C96.4213 153.787 101.883 149.221 106.832 144.272C111.781 139.323 116.048 134.459 119.632 129.68C119.803 129.68 120.059 129.509 120.4 129.168C123.899 128.229 127.781 127.76 132.048 127.76C134.523 127.76 136.955 127.931 139.344 128.272C141.819 128.613 144.123 129.125 146.256 129.808C149.413 130.917 152.059 132.496 154.192 134.544C156.411 136.507 157.52 139.067 157.52 142.224C157.52 144.101 157.008 146.192 155.984 148.496C154.363 152.08 152.101 155.067 149.2 157.456C146.299 159.76 143.056 161.509 139.472 162.704C135.888 163.899 132.261 164.496 128.592 164.496C125.008 164.496 121.595 163.941 118.352 162.832C115.109 161.723 112.379 160.059 110.16 157.84C109.904 157.584 109.776 157.285 109.776 156.944C109.776 156.517 110.032 156.176 110.544 155.92C111.056 155.579 111.525 155.621 111.952 156.048C114.171 158.267 116.603 159.888 119.248 160.912C121.979 161.851 124.709 162.32 127.44 162.32C130.853 162.32 134.181 161.723 137.424 160.528C140.752 159.333 143.739 157.755 146.384 155.792C149.029 153.829 151.12 151.696 152.656 149.392C154.277 147.003 155.088 144.656 155.088 142.352C155.088 140.304 154.32 138.384 152.784 136.592C151.333 134.8 148.901 133.349 145.488 132.24C143.525 131.557 141.392 131.045 139.088 130.704C136.784 130.363 134.523 130.192 132.304 130.192C128.293 130.192 124.667 130.661 121.424 131.6C117.84 136.379 113.531 141.285 108.496 146.32C103.461 151.355 97.872 156.005 91.728 160.272C85.6693 164.453 79.2267 167.824 72.4 170.384C65.5733 173.029 58.5333 174.352 51.28 174.352ZM127.696 121.488C127.269 121.488 126.885 121.317 126.544 120.976C126.203 120.549 126.203 120.08 126.544 119.568C127.653 117.776 129.104 115.472 130.896 112.656C132.773 109.84 134.779 106.811 136.912 103.568C139.131 100.24 141.179 97.1253 143.056 94.224C143.312 93.7973 143.653 93.584 144.08 93.584C144.507 93.584 144.891 93.7973 145.232 94.224C145.573 94.6507 145.573 95.12 145.232 95.632C143.355 98.5333 141.307 101.605 139.088 104.848C136.955 108.091 134.949 111.12 133.072 113.936C131.28 116.752 129.829 119.056 128.72 120.848C128.549 121.275 128.208 121.488 127.696 121.488ZM131.28 171.28C125.563 171.28 120.059 170.427 114.768 168.72C109.477 166.928 105.253 164.453 102.096 161.296C101.84 161.04 101.712 160.741 101.712 160.4C101.712 159.973 101.968 159.632 102.48 159.376C102.992 159.035 103.461 159.077 103.888 159.504C106.875 162.405 110.8 164.667 115.664 166.288C120.613 167.909 125.733 168.72 131.024 168.72C135.973 168.72 140.795 167.995 145.488 166.544C150.267 165.008 154.405 162.704 157.904 159.632C161.488 156.56 163.963 152.592 165.328 147.728C165.925 145.851 166.224 143.931 166.224 141.968C166.224 137.445 164.517 133.904 161.104 131.344C157.776 128.784 153.125 127.12 147.152 126.352C146.384 126.181 146 125.755 146 125.072C146 124.048 146.512 123.621 147.536 123.792C153.765 124.56 158.843 126.437 162.768 129.424C166.779 132.411 168.784 136.549 168.784 141.84C168.784 142.864 168.699 143.931 168.528 145.04C168.357 146.149 168.101 147.301 167.76 148.496C166.224 153.787 163.579 158.139 159.824 161.552C156.069 164.88 151.675 167.355 146.64 168.976C141.691 170.512 136.571 171.28 131.28 171.28Z" fill="#967A44"/>
</g>
</g>
<defs>
<filter id="filter0_d_5_3" x="-2.64801" y="1.35999" width="139.84" height="107.456" filterUnits="userSpaceOnUse" color-interpolation-filters="sRGB">
<feFlood flood-opacity="0" result="BackgroundImageFix"/>
<feColorMatrix in="SourceAlpha" type="matrix" values="0 0 0 0 0 0 0 0 0 0 0 0 0 0 0 0 0 0 127 0" result="hardAlpha"/>
<feOffset dy="4"/>
<feGaussianBlur stdDeviation="2"/>
<feComposite in2="hardAlpha" operator="out"/>
<feColorMatrix type="matrix" values="0 0 0 0 0 0 0 0 0 0 0 0 0 0 0 0 0 0 0.25 0"/>
<feBlend mode="normal" in2="BackgroundImageFix" result="effect1_dropShadow_5_3"/>
<feBlend mode="normal" in="SourceGraphic" in2="effect1_dropShadow_5_3" result="shape"/>
</filter>
<filter id="filter1_d_5_3" x="16.688" y="77.2" width="160.96" height="105.152" filterUnits="userSpaceOnUse" color-interpolation-filters="sRGB">
<feFlood flood-opacity="0" result="BackgroundImageFix"/>
<feColorMatrix in="SourceAlpha" type="matrix" values="0 0 0 0 0 0 0 0 0 0 0 0 0 0 0 0 0 0 127 0" result="hardAlpha"/>
<feOffset dy="4"/>
<feGaussianBlur stdDeviation="2"/>
<feComposite in2="hardAlpha" operator="out"/>
<feColorMatrix type="matrix" values="0 0 0 0 0 0 0 0 0 0 0 0 0 0 0 0 0 0 0.25 0"/>
<feBlend mode="normal" in2="BackgroundImageFix" result="effect1_dropShadow_5_3"/>
<feBlend mode="normal" in="SourceGraphic" in2="effect1_dropShadow_5_3" result="shape"/>
</filter>
<clipPath id="clip0_5_3">
<rect width="175" height="175" fill="white"/>
</clipPath>
</defs>
</svg>
